<svg xmlns="http://www.w3.org/2000/svg" xmlns:xlink="http://www.w3.org/1999/xlink" version="1.1" width="256" height="256" viewBox="0 0 256 256" xml:space="preserve">

<defs>
</defs>
<g style="stroke: none; stroke-width: 0; stroke-dasharray: none; stroke-linecap: butt; stroke-linejoin: miter; stroke-miterlimit: 10; fill: none; fill-rule: nonzero; opacity: 1;" transform="translate(1.4065934065934016 1.4065934065934016) scale(2.81 2.81)" >
	<path d="M 80.83 90 c 1.28 0 2.559 -0.488 3.536 -1.465 c 1.953 -1.952 1.953 -5.118 0 -7.07 L 47.901 45 L 84.366 8.536 c 1.953 -1.953 1.953 -5.119 0 -7.071 c -1.953 -1.952 -5.118 -1.952 -7.071 0 l -40 40 c -0.938 0.938 -1.465 2.209 -1.465 3.536 s 0.526 2.598 1.465 3.535 l 40 40 C 78.271 89.512 79.551 90 80.83 90 z" style="stroke: none; stroke-width: 1; stroke-dasharray: none; stroke-linecap: butt; stroke-linejoin: miter; stroke-miterlimit: 10; fill: rgb(0,0,0); fill-rule: nonzero; opacity: 1;" transform=" matrix(1 0 0 1 0 0) " stroke-linecap="round" />
	<path d="M 49.169 90 c 1.28 0 2.559 -0.488 3.536 -1.465 c 1.953 -1.952 1.953 -5.118 0 -7.07 L 16.241 45 L 52.704 8.536 c 1.953 -1.953 1.953 -5.119 0 -7.071 c -1.954 -1.952 -5.119 -1.951 -7.071 0 l -39.999 40 c -1.953 1.953 -1.953 5.119 0 7.071 l 39.999 40 C 46.61 89.512 47.889 90 49.169 90 z" style="stroke: none; stroke-width: 1; stroke-dasharray: none; stroke-linecap: butt; stroke-linejoin: miter; stroke-miterlimit: 10; fill: rgb(0,0,0); fill-rule: nonzero; opacity: 1;" transform=" matrix(1 0 0 1 0 0) " stroke-linecap="round" />
</g>
</svg>